#N canvas 16 444 540 589 10;
#X floatatom 95 32 5 0 0 1 - - -, f 5;
#X obj 8 10 netreceive 9999;
#X obj 8 32 route u0 u1;
#X obj 71 53 print Else;
#X obj 8 108 unpack f f f;
#X obj 219 108 unpack f f f;
#X floatatom 8 140 10 0 0 0 - - -, f 10;
#X floatatom 75 140 10 0 0 0 - - -, f 10;
#X floatatom 142 140 10 0 0 0 - - -, f 10;
#X floatatom 219 140 10 0 0 0 - - -, f 10;
#X floatatom 286 140 10 0 0 0 - - -, f 10;
#X floatatom 353 140 10 0 0 0 - - -, f 10;
#X text 6 155 Compass;
#X text 217 155 Compass;
#X text 74 155 Roll;
#X text 285 155 Roll;
#X text 142 155 Pitch;
#X text 353 155 Pitch;
#X text 12 92 User 0;
#X text 223 92 User 1;
#X obj 181 451 dac~;
#X floatatom 105 176 5 0 0 0 - - -, f 5;
#X obj 75 197 *;
#X floatatom 75 220 10 0 0 1 Hz - -, f 10;
#X obj 462 308 / 127;
#X obj 462 330 pack 0 50;
#X obj 462 352 line~;
#X obj 134 378 *~;
#X obj 75 282 osc~ 440;
#X obj 462 172 vsl 15 128 0 127 0 0 empty empty Vol. 0 -9 0 10 -262144
-1 -1 0 1;
#X text 127 32 TCP Connections;
#X connect 1 0 2 0;
#X connect 1 1 0 0;
#X connect 2 0 4 0;
#X connect 2 1 5 0;
#X connect 2 2 3 0;
#X connect 4 0 6 0;
#X connect 4 1 7 0;
#X connect 4 2 8 0;
#X connect 5 0 9 0;
#X connect 5 1 10 0;
#X connect 5 2 11 0;
#X connect 7 0 22 0;
#X connect 21 0 22 1;
#X connect 22 0 23 0;
#X connect 23 0 28 0;
#X connect 24 0 25 0;
#X connect 25 0 26 0;
#X connect 26 0 27 1;
#X connect 27 0 20 0;
#X connect 27 0 20 1;
#X connect 28 0 27 0;
#X connect 29 0 24 0;
